# xmcd
#
# Track frame offsets: 
#        150
#        10930
#        21775
#        32877
#        45657
#        57170
#        70517
#        84072
#        98595
#        113782
#        125432
#        144582
#        158127
#        171737
#        185575
#        207247
#        217030
#        229900
#        244937
#        258682
#        275717
#        289645
#
# Disc length: 4059 seconds
#
# Revision: 6
# Processed by: cddbd v1.5.2PL0 Copyright (c) Steve Scherf et al.
# Submitted via: ExactAudioCopy v1.3
#
DISCID=420fd916
DTITLE=Waylon Jennings - Ultimate Waylon Jennings
DYEAR=2004
DGENRE=Country
TTITLE0=Only Daddy That'll Walk That Line
TTITLE1=The Taker
TTITLE2=This Time
TTITLE3=I'm A Ramblin' Man
TTITLE4=Rainy Day Woman
TTITLE5=Are You Sure Hank Done It This Way
TTITLE6=Good Hearted Woman Featuring Waylon Jennings and Willie Nelson
TTITLE7=Are You Ready For The Country
TTITLE8=Luckenback, Texas ( Back To The Basics Of Love )
TTITLE9=Mammas Don't Let Your Babies Grow Up To Be Cowboys Featuring W
TTITLE9=aylon Jennings and Willie Nelson
TTITLE10=I've Always Been Crazy
TTITLE11=Don't You Think This Outlaw Bit's Done Got Out Of Hand
TTITLE12=Amanda
TTITLE13=Come With Me
TTITLE14=I Ain't Living Long Like This
TTITLE15=Theme from The Dukes Of Hazzard ( Good Ol' Boys )
TTITLE16=Just To Satisfy You Featuring Waylon Jennings and Willie Nelson
TTITLE17=Women Do Know How To Carry On
TTITLE18=I May Be Used ( But Baby I Ain't Used Up )
TTITLE19=America
TTITLE20=Highwayman Featuring Johnny Cash, Waylon Jennings, Willie Nel
TTITLE20=son and Kris Kristofferson
TTITLE21=Rose In Paradise
EXTD=RCA Records
EXTT0=
EXTT1=
EXTT2=
EXTT3=
EXTT4=
EXTT5=
EXTT6=
EXTT7=
EXTT8=
EXTT9=
EXTT10=
EXTT11=
EXTT12=
EXTT13=
EXTT14=
EXTT15=
EXTT16=
EXTT17=
EXTT18=
EXTT19=
EXTT20=
EXTT21=
PLAYORDER=
